<svg viewBox="0 0 32 32" xmlns="http://www.w3.org/2000/svg" xml:space="preserve" style="fill-rule:evenodd;clip-rule:evenodd;stroke-linejoin:round;stroke-miterlimit:2"><desc>Custom icon for the Dynamic Switch n8n node</desc><path d="M24.5 3h-2v2h2zm0 4h-2v2h2zm0 4h-2v2h2zm0 4h-2v2h2zm0 4h-2v2h2zm0 4h-2v2h2zm0 4h-2v2h2zm-17-12h2v2h-2z" style="fill:#fff;fill-rule:nonzero"/><path d="M10.395 1.5c-.497 0-.897.44-.897.985v26.532c0 .544.4.984.897.984h11.21c.497 0 .897-.44.897-.984V2.485c0-.545-.4-.984-.897-.984H17.5c-.5 0-.5 1.018-1.5 1.018S15 1.5 14.5 1.5z" style="fill:#c6c2ff"/><path d="M27 8h-3" style="fill:none"/><path d="M217.5 1127.06c.274 0 .5.23.5.5v2c0 .28-.226.5-.5.5h-2c-.274 0-.5-.22-.5-.5v-2c0-.27.226-.5.5-.5zm-.5 1h-1v1h1z" style="fill:#6d5fed;fill-rule:nonzero" transform="translate(-193 -1124.56)"/><path style="fill:#6d5fed" transform="translate(-193 -1124.56)" d="M217 1128.06h3v1h-3z"/><path d="M217.5 1131.06c.274 0 .5.23.5.5v2c0 .28-.226.5-.5.5h-2c-.274 0-.5-.22-.5-.5v-2c0-.27.226-.5.5-.5zm-.5 1h-1v1h1z" style="fill:#6d5fed;fill-rule:nonzero" transform="translate(-193 -1124.56)"/><path style="fill:#6d5fed" transform="translate(-193 -1124.56)" d="M217 1132.06h3v1h-3z"/><path d="M217.5 1135.06c.274 0 .5.23.5.5v2c0 .28-.226.5-.5.5h-2c-.274 0-.5-.22-.5-.5v-2c0-.27.226-.5.5-.5zm-.5 1h-1v1h1z" style="fill:#6d5fed;fill-rule:nonzero" transform="translate(-193 -1124.56)"/><path style="fill:#6d5fed" transform="translate(-193 -1124.56)" d="M217 1136.06h3v1h-3z"/><path d="M217.5 1139.06c.274 0 .5.23.5.5v2c0 .28-.226.5-.5.5h-2c-.274 0-.5-.22-.5-.5v-2c0-.27.226-.5.5-.5zm-.5 1h-1v1h1z" style="fill:#6d5fed;fill-rule:nonzero" transform="translate(-193 -1124.56)"/><path style="fill:#6d5fed" transform="translate(-193 -1124.56)" d="M217 1140.06h3v1h-3z"/><path d="M217.5 1143.06c.274 0 .5.23.5.5v2c0 .28-.226.5-.5.5h-2c-.274 0-.5-.22-.5-.5v-2c0-.27.226-.5.5-.5zm-.5 1h-1v1h1z" style="fill:#6d5fed;fill-rule:nonzero" transform="translate(-193 -1124.56)"/><path style="fill:#6d5fed" transform="translate(-193 -1124.56)" d="M217 1144.06h3v1h-3z"/><path d="M217.5 1147.06c.274 0 .5.23.5.5v2c0 .28-.226.5-.5.5h-2c-.274 0-.5-.22-.5-.5v-2c0-.27.226-.5.5-.5zm-.5 1h-1v1h1z" style="fill:#6d5fed;fill-rule:nonzero" transform="translate(-193 -1124.56)"/><path style="fill:#6d5fed" transform="translate(-193 -1124.56)" d="M217 1148.06h3v1h-3z"/><path d="M217.5 1151.06c.274 0 .5.23.5.5v2c0 .28-.226.5-.5.5h-2c-.274 0-.5-.22-.5-.5v-2c0-.27.226-.5.5-.5zm-.5 1h-1v1h1z" style="fill:#6d5fed;fill-rule:nonzero" transform="translate(-193 -1124.56)"/><path style="fill:#6d5fed" transform="translate(-193 -1124.56)" d="M217 1152.06h3v1h-3z"/><path d="M200.5 1139.06c-.274 0-.5.23-.5.5v2c0 .28.226.5.5.5h2c.274 0 .5-.22.5-.5v-2c0-.27-.226-.5-.5-.5zm.5 1h1v1h-1z" style="fill:#6d5fed;fill-rule:nonzero" transform="translate(-193 -1124.56)"/><path style="fill:#6d5fed" transform="translate(-193 -1124.56)" d="M198 1140.06h3v1h-3z"/><path d="M12 3.5c0 .274-.226.5-.5.5a.503.503 0 0 1-.5-.5c0-.274.226-.5.5-.5s.5.226.5.5" style="fill:#6d5fed;fill-rule:nonzero"/><path d="M203.395 1125.56c-.792 0-1.397.7-1.397 1.49v26.53c0 .79.605 1.49 1.397 1.49h11.21c.792 0 1.397-.7 1.397-1.49v-26.53c0-.79-.605-1.48-1.397-1.48H210.5a.94.94 0 0 0-.676.32c-.133.15-.21.28-.289.39-.156.21-.205.3-.535.3s-.38-.09-.535-.3c-.078-.11-.156-.24-.29-.39a.94.94 0 0 0-.675-.32h-4.105zm0 1h4.043c.04.05.115.17.222.31.22.3.67.71 1.34.71s1.12-.41 1.34-.71c.107-.14.183-.26.223-.31h4.042c.203 0 .397.19.397.49v26.53c0 .3-.195.49-.397.49h-11.21c-.203 0-.397-.19-.397-.49v-26.53c0-.3.195-.49.397-.48z" style="fill:#6d5fed" transform="translate(-193 -1124.56)"/></svg>
